<svg xmlns="http://www.w3.org/2000/svg" xmlns:xlink="http://www.w3.org/1999/xlink" version="1.0" id="图层_1" x="0px" y="0px" width="1024px" height="1024px" viewBox="0 0 1024 1024" enable-background="new 0 0 512 512" xml:space='preserve'>
<g>
	<g>
		<path fill="#CCCCCC" d="M337.4,427.5c17.5-5.9,34.3-13.6,50-23.4c13.2-8.2,32.6-19,34-36.3c0.5-7-2.9-15.9-10.2-18    c-8.9-2.6-13.6,6.9-16.8,13.4c-8.1,16.6-11.1,35.1-15.9,52.8c-10.4,38.3-25.8,75-42.3,111c-6.8,14.7-12.8,31.9-23.9,44    c-4.3,4.7-11.4,10.6-18.2,9.9c-0.8-0.1-2.7-0.2-2.8-1.4c0,0.3,3,0,3.9,0c5,0.1,10.1,0.8,15,1.6c36.5,6,79.8,21.7,111.2-6.8    c5.7-5.2-2.8-13.7-8.5-8.5c-26.8,24.2-67,9.3-97.7,4c-8.3-1.4-18.9-4.1-27.3-1.7c-7.5,2.2-10.7,10.4-7.1,17.2    c8.2,15.4,29.7,4.3,38.5-4.4c11.3-11.3,17.4-26.9,24-41.1c8.2-17.6,16.1-35.3,23.4-53.2c7.5-18.3,14.3-36.9,19.9-55.8    c5.3-17.7,8.4-36.2,14.6-53.6c1.7-4.6,3.7-9.1,6.3-13.4c0.4-0.8,1.6-1.9,1.7-2.7c0.6-0.6,0.4-0.6-0.4,0c-1,0.3-1,0.8-0.1,1.5    c0.2,1.7,0.8,3.1,0.6,5c-1.2,9.1-12.4,15.5-19.2,20.2c-17.3,11.9-36.1,21.3-56,28C327,418.4,330.1,430,337.4,427.5L337.4,427.5z"/>
	</g>
</g>
<g>
	<g>
		<path fill="#CCCCCC" d="M456.2,496.8c-2.4-4.9-8.4-4.6-12.1-1.4c-4.5,4-6.6,12.3-8.8,17.8c-5.3,13.2-9.5,26.9-12.5,40.7    c-1.5,6.6-2.7,13.3-3.6,20.1c-0.8,5.8-1.2,12.5,5,15.6c9.6,4.9,23.1-5,30.2-10.7c19.6-15.4,30.6-40.2,28.6-65.1    c-0.8-10-3.4-24.1-14.9-26.8c-6-1.4-11.5,2-16,5.6c-4.6,3.7-9.6,8.2-12,13.7c-2.5,5.6-0.9,11.7,3.6,15.8    c5.3,4.8,12.5,4.7,19.1,3.5c14.6-2.7,28.7-9.2,40.9-17.6c6.3-4.3,0.3-14.7-6.1-10.4c-7.2,4.9-14.9,9.1-23.1,12.1    c-3.9,1.4-20.4,8.3-23.3,2.9c-1.8-3.3,11.1-14.9,14.5-13.9c5.4,1.5,5.5,15.3,5.5,19.3c0.3,16.7-5.8,33-17.3,45.1    c-5.2,5.4-11.2,9.9-17.8,13.3c-1.8,0.9-3.5,1.6-5.3,2.2c-1.1,0.4-0.7-0.2-0.6,0.1c0.2,0.7,0.7-2.2,0.8-2.6    c0.6-4.6,1.4-9.2,2.3-13.7c2-10.3,4.7-20.5,8-30.5c1.5-4.7,3.2-9.4,5-14c1-2.7,2.1-5.4,3.3-8c0.4-0.9,0.7-1.7,1.1-2.5    c0.4-0.8,0.8-1.7,1.2-2.5c1-1.6,0.1-1.6-2.7-0.2c-1.2-0.9-2.4-1.8-3.6-2.8c0.1,0.2,0.2,0.5,0.3,0.7    C449.4,509.7,459.7,503.7,456.2,496.8L456.2,496.8z"/>
	</g>
</g>
<g>
	<g>
		<path fill="#CCCCCC" d="M497.6,496.2c4.3,1.1,4.2,11.5,4.6,14.8c0.9,7.4,1.6,14.9,2,22.4c1,15.3,1.1,30.6,0.4,45.9    c-0.3,5.7,6.5,7.2,10.2,4.2c19.7-15.7,34.3-37.2,42-61.1c3.5-11,6.8-24.2,5.8-35.8c-0.5-5.4-3.1-10.4-8.7-11.7    c-6.4-1.5-11.4,3.6-14.2,8.8c-1.9,3.4-0.2,7.7,3.6,8.8c4.8,1.4,9.6,1.9,14.6,1.4c7.6-0.8,7.7-12.8,0-12c-4,0.4-7.5,0.1-11.4-1    c1.2,2.9,2.4,5.9,3.6,8.8c0.3-0.6,1.9-2.4,1.8-2.8c0.7-0.5,0.5-0.7-0.5-0.6c-0.6-0.4-0.9-0.5-0.9-0.1c-0.4,0.8,0.2,3.8,0.1,4.8    c-0.3,4.6-0.8,9.2-1.7,13.8c-1.8,9.1-4.5,18.1-8.4,26.5c-7.8,17-19.5,31.9-34.2,43.5c3.4,1.4,6.8,2.8,10.2,4.2    c0.8-18.6,0.5-37.2-1.1-55.7c-0.7-8.3-1.2-17.1-3.1-25.2c-1.5-6.3-5-12.1-11.6-13.8C493.3,482.7,490.1,494.2,497.6,496.2    L497.6,496.2z"/>
	</g>
</g>
<g>
	<g>
		<path fill="#CCCCCC" d="M554.5,552.1c18.8-2.8,36.4-13,48.3-27.8c5.7-7.1,11.8-16.2,13-25.4c1.4-10.4-6.8-18.4-17.1-17.6    c-10.1,0.7-17.5,9.7-22.3,17.8c-5.5,9.2-8.4,19.8-10,30.4c-1.6,10.7-3.3,22.4,0.8,32.8c3.5,9,10.9,15.6,20.7,16.6    c12.5,1.3,23.2-6.6,31.3-15.2c8.2-8.8,14.9-19.2,14.9-31.5c0-7.7-12-7.7-12,0c0,7.9-4.2,14.7-9.2,20.6c-4.8,5.6-10.6,11.7-18,13.7    c-7,1.9-13.1-0.9-16.1-7.4c-3.3-7.2-2.1-16.1-1.1-23.7c1.7-13.4,5.7-32.4,18-40.4c2-1.3,5.3-2.6,7.5-0.8c2.6,2.2,0,7-1.2,9.5    c-2.9,6.1-6.7,11.8-11.3,16.7c-10.4,11.1-24.1,18.1-39.2,20.3C543.7,541.6,546.9,553.2,554.5,552.1L554.5,552.1z"/>
	</g>
</g>
<g>
	<path fill="#F56170" d="M600.7,406c-2.7-20.2-2.4-40.9,1-61c1-5.8,3.6-12.8,9.5-13.2c4.4-0.3,7.9,3.6,9.8,7.5   c5.8,12.2,2.2,26.6-1.5,39.5c7.6-9,16.6-16.9,26.6-23.2c2.5-1.6,5.4-3.2,8.4-3c6,0.4,9.4,7.4,9.3,13.4c-0.2,8.3-4.6,16.2-10.6,21.9   s-13.7,9.5-21.5,12.5c-9.5,3.7-19.4,6.3-29.5,7.7"/>
</g>
</svg>